<svg width="16399" height="8756" viewBox="0 0 16399 8756" fill="none" xmlns="http://www.w3.org/2000/svg">
<g id="dining-oak">
<line id="ITEM_COLA_CAP" x1="8776.5" y1="7346.01" x2="8773.5" y2="7056.01" stroke="black"/>
<line id="ITEM_CUP" x1="7984.46" y1="2304.21" x2="7509.46" y2="3350.21" stroke="black"/>
<line id="ITEM_BOWL_SOUP_1" x1="3017.5" y1="1784" x2="3017.5" y2="2584" stroke="black"/>
<line id="ITEM_PLATE_BBQ" x1="4182.29" y1="7350.02" x2="4152.5" y2="6355.02" stroke="black"/>
<line id="ITEM_FRIES_ORANGE" x1="10090.4" y1="5309.75" x2="10499.4" y2="6014.75" stroke="white"/>
<line id="ITEM_PAN_STEER" x1="10254.4" y1="1848.26" x2="9677.42" y2="2778.26" stroke="black"/>
<line id="ITEM_KNIFE_2" x1="12958.3" y1="1828.38" x2="12511.3" y2="2215.38" stroke="black"/>
<line id="ITEM_KNIFE_2_2" x1="12017.5" y1="2265.18" x2="11794.5" y2="2827.18" stroke="black"/>
<line id="ITEM_FRIES_RED" x1="7980.47" y1="5549.17" x2="7703.47" y2="6334.17" stroke="black"/>
<path id="track_path" d="M13689 5601.71L15099 4324.37L15682.5 2763L15099 1168.5L14034.5 738L11974.5 1563L9727.52 631.5L8051.5 738L6564.5 2351L4960.32 1769.7L3483.17 738H2207.44L1301 3047.03L1703.86 6092.99L3483.17 8009H5195.33L7713.21 4324.37L8921.79 3538.32L9727.52 3882.22L11641.1 5601.71H13689Z" stroke="black" stroke-width="800"/>
<line id="ITEM_FRIES_ORANGE_2" x1="5019.63" y1="892.332" x2="4386.63" y2="180.332" stroke="white"/>
<line id="ITEM_PLATE_SOUP_SPOON" x1="4377.5" y1="3540" x2="4377.5" y2="4340" stroke="black"/>
<line id="ITEM_PLATE_MASHED" x1="6187.71" y1="5655.41" x2="5467.71" y2="5152.41" stroke="black"/>
<line id="ITEM_BOWL_SOUP_1_2" x1="13928.5" y1="3356" x2="13928.5" y2="4156" stroke="black"/>
<line id="ITEM_BOWL_SOUP_EGG" x1="14113.5" y1="1569" x2="14113.5" y2="2369" stroke="black"/>
<line id="ITEM_PLATE_SOUP_SPOON_2" x1="14999.4" y1="5542.66" x2="15568.4" y2="6149.66" stroke="black"/>
<line id="ITEM_PLATE_SAUSAGE_SET" x1="12827.5" y1="6196" x2="12827.5" y2="6996" stroke="black"/>
<line id="ITEM_PLATE_SAUSAGE_SET_2" x1="3027.07" y1="4266.49" x2="2173.07" y2="4394.49" stroke="black"/>
<line id="ITEM_FRIES_RED_2" x1="1221.47" y1="604.166" x2="944.471" y2="1389.17" stroke="black"/>
<line id="ITEM_KNIFE_2_3" x1="13168.5" y1="4378.04" x2="13123.5" y2="4982.04" stroke="black"/>
<line id="ITEM_FORK_2" x1="11389.4" y1="4518.67" x2="11772.4" y2="4958.67" stroke="black"/>
<line id="ITEM_FORK_2_2" x1="6132.38" y1="4619.67" x2="6515.38" y2="5059.67" stroke="black"/>
<line id="ITEM_FORK_2_3" x1="10698.4" y1="1659.67" x2="11081.4" y2="2099.67" stroke="black"/>
<line id="ITEM_FORK_2_4" x1="3856.38" y1="1809.67" x2="4239.38" y2="2249.67" stroke="black"/>
<line id="ITEM_FORK_2_5" x1="5977.11" y1="2820.49" x2="5337.11" y2="2969.49" stroke="black"/>
<line id="ITEM_FORK_2_6" x1="3309.38" y1="6134.67" x2="3692.38" y2="6574.67" stroke="black"/>
<line id="ITEM_FORK_2_7" x1="6594.46" y1="7281.19" x2="6363.46" y2="7834.19" stroke="black"/>
<line id="ITEM_KNIFE_2_4" x1="8910.32" y1="4544.38" x2="8501.32" y2="4889.38" stroke="black"/>
<line id="ITEM_KNIFE_2_5" x1="5097.45" y1="5791.79" x2="5359.45" y2="6350.79" stroke="black"/>
<line id="ITEM_KNIFE_2_6" x1="2881.33" y1="6301.63" x2="3331.33" y2="6698.62" stroke="black"/>
<line id="ITEM_KNIFE_2_7" x1="859.491" y1="5019.91" x2="979.491" y2="5654.91" stroke="black"/>
<line id="ITEM_KNIFE_2_8" x1="4820.32" y1="2262.38" x2="4411.32" y2="2607.38" stroke="black"/>
<line id="ITEM_FORK_2_8" x1="8828.17" y1="1385.47" x2="8278.17" y2="1590.47" stroke="black"/>
<line id="ITEM_FRIES_ORANGE_3" x1="1546.43" y1="7226.75" x2="1955.43" y2="7931.75" stroke="white"/>
<line id="ITEM_PLATE_CHICKEN" x1="6660.71" y1="1137.41" x2="5940.71" y2="634.41" stroke="black"/>
<line id="ITEM_PLATE_MASHED_2" x1="12331.5" y1="4992.01" x2="12317.5" y2="4156.01" stroke="black"/>
</g>
</svg>
