<svg width="236" height="749" viewBox="0 0 236 749" fill="none" xmlns="http://www.w3.org/2000/svg">
<path d="M39.7217 38.0078L89.4546 145.555L36.8355 169.745V169.727C9.84949 130.511 10.102 77.2963 39.7217 38.0078Z" fill="#B3B3B3"/>
<path d="M108.792 183.617L130.547 229.742L107.187 240.746L85.1797 194.061L108.522 183.058L108.792 183.617Z" fill="#808080"/>
<path d="M154.538 161.357L176.545 208.041L153.203 219.045L152.932 218.486L131.178 172.379L154.538 161.357Z" fill="#808080"/>
<path d="M152.933 218.486L153.204 219.045L130.547 229.742L108.792 183.617L108.521 183.058L131.178 172.379L152.933 218.486Z" fill="#999999"/>
<path d="M130.547 229.742L153.203 219.045L176.546 208.041L154.538 161.357L131.178 172.379L108.521 183.058L85.1791 194.061L107.186 240.746L130.547 229.742ZM235.55 112.58C235.55 121.527 234.811 130.33 232.52 138.61C230.86 144.653 223.248 163.846 223.248 163.846L223.212 163.936L181.362 266.541C171.332 291.128 165.758 317.302 164.911 343.837L161.465 343.711H80.471C75.4562 310.159 62.8651 278.032 43.4554 249.855L0 186.665L27.9962 173.804L36.8352 169.745L89.4543 145.555L177.898 104.895L129.789 0C188.812 3.62579 235.55 52.6372 235.55 112.58Z" fill="#CCCCCC"/>
<path d="M164.765 652.264V707.192C164.765 729.795 146.456 748.122 123.853 748.122C112.543 748.122 102.333 743.54 94.9192 736.126C87.5233 728.731 82.9414 718.503 82.9414 707.192V652.264H85.1421H160.346H164.765ZM141.098 705.948C141.098 696.585 133.522 688.991 124.142 688.991C114.78 688.991 107.186 696.585 107.186 705.948C107.186 715.31 114.78 722.904 124.142 722.904C133.522 722.904 141.098 715.31 141.098 705.948Z" fill="#999999"/>
<path d="M161.465 343.711L164.91 343.837C164.802 346.272 164.766 348.708 164.766 351.161V371.364H160.346H85.1428L82.8699 371.437C82.6534 362.129 81.8417 352.875 80.4707 343.711H161.465Z" fill="#999999"/>
<path d="M164.767 371.364V652.264H160.348H85.144H82.9433V376.866C82.9433 375.062 82.9252 373.258 82.8711 371.436L85.144 371.364H160.348H164.767Z" fill="#EF7954"/>
</svg>
