<svg xmlns="http://www.w3.org/2000/svg" width="416" height="155" fill="none" viewBox="0 0 416 155"><path fill="#d9d9d9" d="m217 126.5 4-35v-30L217 28l54-14.5 7.5 28 4 35.5-4 35.5L271 142z"/><path fill="#4c5359" d="M238.691 129.307c.864 1.57 2.879.785 3.167-.523 1.152-7.065 2.592-14.391 6.91-21.717 2.016 10.466 7.775 18.839 13.821 23.548 1.44 1.047 3.167-.261 2.879-1.308-4.895-12.559-7.774-25.38-5.758-41.34 0-1.309-.576-2.356-2.016-2.094-21.018 4.186-28.793 28.52-19.003 43.434M238.691 26.693c.864-1.57 2.879-.785 3.167.523 1.152 7.065 2.592 14.391 6.91 21.717 2.016-10.466 7.775-18.838 13.821-23.548 1.44-1.047 3.167.261 2.879 1.308-4.895 12.56-7.774 25.38-5.758 41.34 0 1.309-.576 2.356-2.016 2.094-21.018-4.186-28.793-28.52-19.003-43.434"/><path stroke="#000" d="m220.924 90.224-3.902 36.552 54.134 15.731 7.803-30.074 3.901-35.627-3.901-35.164-7.803-28.687-54.134 15.269 3.902 34.239z"/></svg>