<svg xmlns="http://www.w3.org/2000/svg" width="403" height="156" fill="none" viewBox="0 0 403 156"><path fill="#fff" d="M249.5 140.5 205 128l-2-3 6.5-28.5V62L203 31.5l1.5-2 45-14.5L261 25.5l9 18.5 5 25.5V88l-4.5 23.5L261 132z"/><path fill="#3b97d3" d="M246.597 134.484c-6.247 0-11.31-4.933-11.31-11.019s5.063-11.02 11.31-11.02c6.246 0 11.309 4.934 11.309 11.02s-5.063 11.019-11.309 11.019"/><path fill="#7f7f7f" d="M245.817 113.205c6.246 0 11.309 4.934 11.309 11.02a10.82 10.82 0 0 1-2.932 7.402c2.28-2.016 3.712-4.926 3.712-8.162 0-6.086-5.063-11.02-11.309-11.02a11.42 11.42 0 0 0-8.378 3.617 11.43 11.43 0 0 1 7.598-2.857"/><path fill="#35495e" d="M246.597 128.403c-2.8 0-5.069-2.211-5.069-4.938s2.269-4.938 5.069-4.938 5.068 2.211 5.068 4.938-2.269 4.938-5.068 4.938"/><path fill="#fff" d="M243.085 129.541c-1.506 0-2.727-1.19-2.727-2.659s1.221-2.659 2.727-2.659 2.727 1.191 2.727 2.659c0 1.469-1.221 2.659-2.727 2.659"/><path fill="#3b97d3" d="M247.597 98.485c-6.247 0-11.31-4.934-11.31-11.02s5.063-11.02 11.31-11.02c6.246 0 11.309 4.934 11.309 11.02s-5.063 11.02-11.309 11.02"/><path fill="#7f7f7f" d="M246.817 77.205c6.246 0 11.309 4.934 11.309 11.02a10.82 10.82 0 0 1-2.932 7.402c2.28-2.016 3.712-4.926 3.712-8.162 0-6.086-5.063-11.02-11.309-11.02a11.41 11.41 0 0 0-8.378 3.618 11.44 11.44 0 0 1 7.598-2.858"/><path fill="#35495e" d="M247.597 92.403c-2.8 0-5.069-2.21-5.069-4.938s2.269-4.938 5.069-4.938 5.068 2.21 5.068 4.938-2.269 4.938-5.068 4.938"/><path fill="#fff" d="M244.085 93.541c-1.506 0-2.727-1.19-2.727-2.659s1.221-2.659 2.727-2.659 2.727 1.19 2.727 2.66c0 1.468-1.221 2.658-2.727 2.658"/><path fill="#d9d9d9" stroke="#000" d="M243.233 114.985 245 139l-40-11-2-3 4-15.5 2.5-13.5V62L207 46l-4-14 2-3 38.5-11.5 1.733 19.984.5 27-2 35.5-5 1.001z"/><path stroke="#000" d="m204.717 127.846 44.943 12.462 11.475-8.77 9.084-19.846L275 86.769V69.692l-4.781-25.846-9.084-18-11.475-10.615-44.943 13.846-1.912 2.77L207 46l2.498 16.308V96l-2.868 13.846-3.825 15.231z"/></svg>